<mxfile host="Electron" agent="Mozilla/5.0 (Windows NT 10.0; Win64; x64) AppleWebKit/537.36 (KHTML, like Gecko) draw.io/26.2.2 Chrome/134.0.6998.178 Electron/35.1.2 Safari/537.36" version="26.2.2">
  <diagram name="Page-1" id="2YBvvXClWsGukQMizWep">
    <mxGraphModel dx="1305" dy="783" grid="1" gridSize="10" guides="1" tooltips="1" connect="1" arrows="1" fold="1" page="1" pageScale="1" pageWidth="850" pageHeight="1100" math="0" shadow="0">
      <root>
        <mxCell id="0" />
        <mxCell id="1" parent="0" />
        <mxCell id="avNWTsGXoQomydp-T-J9-1" value="UBER" style="rounded=0;whiteSpace=wrap;html=1;" vertex="1" parent="1">
          <mxGeometry x="360" y="30" width="120" height="60" as="geometry" />
        </mxCell>
        <mxCell id="avNWTsGXoQomydp-T-J9-2" value="User" style="shape=umlActor;verticalLabelPosition=bottom;verticalAlign=top;html=1;outlineConnect=0;" vertex="1" parent="1">
          <mxGeometry x="120" y="140" width="30" height="60" as="geometry" />
        </mxCell>
        <mxCell id="avNWTsGXoQomydp-T-J9-4" value="Rider" style="shape=umlActor;verticalLabelPosition=bottom;verticalAlign=top;html=1;outlineConnect=0;" vertex="1" parent="1">
          <mxGeometry x="700" y="140" width="30" height="60" as="geometry" />
        </mxCell>
        <mxCell id="avNWTsGXoQomydp-T-J9-6" value="" style="strokeWidth=2;html=1;shape=mxgraph.flowchart.annotation_2;align=left;labelPosition=right;pointerEvents=1;direction=south;" vertex="1" parent="1">
          <mxGeometry x="135" y="90" width="580" height="50" as="geometry" />
        </mxCell>
        <mxCell id="avNWTsGXoQomydp-T-J9-8" value="Username and Password matched" style="rounded=0;whiteSpace=wrap;html=1;" vertex="1" parent="1">
          <mxGeometry x="75" y="260" width="120" height="60" as="geometry" />
        </mxCell>
        <mxCell id="avNWTsGXoQomydp-T-J9-9" value="Username and Password matched" style="rounded=0;whiteSpace=wrap;html=1;" vertex="1" parent="1">
          <mxGeometry x="655" y="270" width="120" height="60" as="geometry" />
        </mxCell>
        <mxCell id="avNWTsGXoQomydp-T-J9-10" value="" style="shape=singleArrow;direction=south;whiteSpace=wrap;html=1;" vertex="1" parent="1">
          <mxGeometry x="105" y="320" width="45" height="80" as="geometry" />
        </mxCell>
        <mxCell id="avNWTsGXoQomydp-T-J9-11" value="Yes" style="text;html=1;align=center;verticalAlign=middle;whiteSpace=wrap;rounded=0;" vertex="1" parent="1">
          <mxGeometry x="135" y="330" width="60" height="30" as="geometry" />
        </mxCell>
        <mxCell id="avNWTsGXoQomydp-T-J9-14" value="Login" style="ellipse;whiteSpace=wrap;html=1;aspect=fixed;" vertex="1" parent="1">
          <mxGeometry x="92.5" y="400" width="70" height="70" as="geometry" />
        </mxCell>
        <mxCell id="avNWTsGXoQomydp-T-J9-15" value="Yes" style="text;html=1;align=center;verticalAlign=middle;whiteSpace=wrap;rounded=0;" vertex="1" parent="1">
          <mxGeometry x="715" y="360" width="60" height="30" as="geometry" />
        </mxCell>
        <mxCell id="avNWTsGXoQomydp-T-J9-16" value="Login" style="ellipse;whiteSpace=wrap;html=1;aspect=fixed;" vertex="1" parent="1">
          <mxGeometry x="677.5" y="400" width="70" height="70" as="geometry" />
        </mxCell>
        <mxCell id="avNWTsGXoQomydp-T-J9-17" value="" style="shape=singleArrow;direction=south;whiteSpace=wrap;html=1;" vertex="1" parent="1">
          <mxGeometry x="685" y="330" width="55" height="70" as="geometry" />
        </mxCell>
        <mxCell id="avNWTsGXoQomydp-T-J9-19" value="" style="endArrow=open;endFill=1;endSize=12;html=1;rounded=0;" edge="1" parent="1">
          <mxGeometry width="160" relative="1" as="geometry">
            <mxPoint x="127" y="470" as="sourcePoint" />
            <mxPoint x="127" y="550" as="targetPoint" />
          </mxGeometry>
        </mxCell>
        <mxCell id="avNWTsGXoQomydp-T-J9-21" value="" style="endArrow=open;endFill=1;endSize=12;html=1;rounded=0;" edge="1" parent="1">
          <mxGeometry width="160" relative="1" as="geometry">
            <mxPoint x="712" y="470" as="sourcePoint" />
            <mxPoint x="712" y="550" as="targetPoint" />
          </mxGeometry>
        </mxCell>
        <mxCell id="avNWTsGXoQomydp-T-J9-22" value="Search for locations" style="html=1;whiteSpace=wrap;" vertex="1" parent="1">
          <mxGeometry x="75" y="550" width="110" height="50" as="geometry" />
        </mxCell>
        <mxCell id="avNWTsGXoQomydp-T-J9-23" value="Get a ride request" style="html=1;whiteSpace=wrap;" vertex="1" parent="1">
          <mxGeometry x="660" y="550" width="110" height="50" as="geometry" />
        </mxCell>
        <mxCell id="avNWTsGXoQomydp-T-J9-24" value="" style="endArrow=open;endFill=1;endSize=12;html=1;rounded=0;entryX=0.25;entryY=1;entryDx=0;entryDy=0;" edge="1" parent="1" target="avNWTsGXoQomydp-T-J9-23">
          <mxGeometry width="160" relative="1" as="geometry">
            <mxPoint x="190" y="660" as="sourcePoint" />
            <mxPoint x="690" y="610" as="targetPoint" />
            <Array as="points">
              <mxPoint x="690" y="660" />
            </Array>
          </mxGeometry>
        </mxCell>
        <mxCell id="avNWTsGXoQomydp-T-J9-27" value="OTP&amp;nbsp;" style="html=1;whiteSpace=wrap;" vertex="1" parent="1">
          <mxGeometry x="75" y="720" width="110" height="50" as="geometry" />
        </mxCell>
        <mxCell id="avNWTsGXoQomydp-T-J9-28" value="" style="edgeStyle=segmentEdgeStyle;endArrow=classic;html=1;curved=0;rounded=0;endSize=8;startSize=8;exitX=0.5;exitY=1;exitDx=0;exitDy=0;entryX=1;entryY=0.5;entryDx=0;entryDy=0;" edge="1" parent="1" source="avNWTsGXoQomydp-T-J9-23">
          <mxGeometry width="50" height="50" relative="1" as="geometry">
            <mxPoint x="715" y="610" as="sourcePoint" />
            <mxPoint x="185" y="755" as="targetPoint" />
            <Array as="points">
              <mxPoint x="715" y="730" />
              <mxPoint x="230" y="730" />
              <mxPoint x="230" y="755" />
            </Array>
          </mxGeometry>
        </mxCell>
        <mxCell id="avNWTsGXoQomydp-T-J9-30" value="Aceept" style="text;html=1;align=center;verticalAlign=middle;whiteSpace=wrap;rounded=0;" vertex="1" parent="1">
          <mxGeometry x="715" y="650" width="60" height="30" as="geometry" />
        </mxCell>
        <mxCell id="avNWTsGXoQomydp-T-J9-31" value="Genarets OTP" style="text;html=1;align=center;verticalAlign=middle;whiteSpace=wrap;rounded=0;" vertex="1" parent="1">
          <mxGeometry x="400" y="690" width="60" height="30" as="geometry" />
        </mxCell>
        <mxCell id="avNWTsGXoQomydp-T-J9-33" value="Ride Started" style="html=1;whiteSpace=wrap;" vertex="1" parent="1">
          <mxGeometry x="677.5" y="810" width="110" height="50" as="geometry" />
        </mxCell>
        <mxCell id="avNWTsGXoQomydp-T-J9-34" value="" style="edgeStyle=elbowEdgeStyle;elbow=horizontal;endArrow=classic;html=1;curved=0;rounded=0;endSize=8;startSize=8;entryX=0;entryY=0.5;entryDx=0;entryDy=0;exitX=0.5;exitY=1;exitDx=0;exitDy=0;" edge="1" parent="1" source="avNWTsGXoQomydp-T-J9-27" target="avNWTsGXoQomydp-T-J9-33">
          <mxGeometry width="50" height="50" relative="1" as="geometry">
            <mxPoint x="130" y="790" as="sourcePoint" />
            <mxPoint x="450" y="700" as="targetPoint" />
            <Array as="points">
              <mxPoint x="130" y="800" />
              <mxPoint x="130" y="780" />
              <mxPoint x="220" y="710" />
            </Array>
          </mxGeometry>
        </mxCell>
        <mxCell id="avNWTsGXoQomydp-T-J9-36" value="OTP Accepted" style="text;html=1;align=center;verticalAlign=middle;whiteSpace=wrap;rounded=0;" vertex="1" parent="1">
          <mxGeometry x="400" y="800" width="60" height="30" as="geometry" />
        </mxCell>
        <mxCell id="avNWTsGXoQomydp-T-J9-38" value="" style="endArrow=open;endFill=1;endSize=12;html=1;rounded=0;entryX=0.5;entryY=0;entryDx=0;entryDy=0;" edge="1" parent="1" target="avNWTsGXoQomydp-T-J9-8">
          <mxGeometry width="160" relative="1" as="geometry">
            <mxPoint x="135" y="220" as="sourcePoint" />
            <mxPoint x="282.5" y="220" as="targetPoint" />
          </mxGeometry>
        </mxCell>
        <mxCell id="avNWTsGXoQomydp-T-J9-41" value="" style="endArrow=open;endFill=1;endSize=12;html=1;rounded=0;entryX=0.5;entryY=0;entryDx=0;entryDy=0;" edge="1" parent="1">
          <mxGeometry width="160" relative="1" as="geometry">
            <mxPoint x="715" y="220" as="sourcePoint" />
            <mxPoint x="715" y="270" as="targetPoint" />
          </mxGeometry>
        </mxCell>
        <mxCell id="avNWTsGXoQomydp-T-J9-47" value="Book a Ride" style="html=1;whiteSpace=wrap;" vertex="1" parent="1">
          <mxGeometry x="75" y="640" width="110" height="50" as="geometry" />
        </mxCell>
        <mxCell id="avNWTsGXoQomydp-T-J9-48" value="" style="endArrow=open;endFill=1;endSize=12;html=1;rounded=0;entryX=0.5;entryY=0;entryDx=0;entryDy=0;" edge="1" parent="1">
          <mxGeometry width="160" relative="1" as="geometry">
            <mxPoint x="127" y="600" as="sourcePoint" />
            <mxPoint x="127" y="640" as="targetPoint" />
            <Array as="points">
              <mxPoint x="127" y="620" />
            </Array>
          </mxGeometry>
        </mxCell>
        <mxCell id="avNWTsGXoQomydp-T-J9-51" value="Ride Completed" style="html=1;whiteSpace=wrap;" vertex="1" parent="1">
          <mxGeometry x="370" y="910" width="110" height="50" as="geometry" />
        </mxCell>
        <mxCell id="avNWTsGXoQomydp-T-J9-52" value="Cash" style="html=1;whiteSpace=wrap;" vertex="1" parent="1">
          <mxGeometry x="75" y="1020" width="110" height="50" as="geometry" />
        </mxCell>
        <mxCell id="avNWTsGXoQomydp-T-J9-54" value="Card" style="html=1;whiteSpace=wrap;" vertex="1" parent="1">
          <mxGeometry x="370" y="1020" width="110" height="50" as="geometry" />
        </mxCell>
        <mxCell id="avNWTsGXoQomydp-T-J9-55" value="UPI" style="html=1;whiteSpace=wrap;" vertex="1" parent="1">
          <mxGeometry x="665" y="1020" width="110" height="50" as="geometry" />
        </mxCell>
        <mxCell id="avNWTsGXoQomydp-T-J9-57" value="Pays via Cash" style="html=1;whiteSpace=wrap;" vertex="1" parent="1">
          <mxGeometry x="75" y="1120" width="110" height="50" as="geometry" />
        </mxCell>
        <mxCell id="avNWTsGXoQomydp-T-J9-58" value="Payment via card(Using Stripe)" style="html=1;whiteSpace=wrap;" vertex="1" parent="1">
          <mxGeometry x="375" y="1120" width="110" height="50" as="geometry" />
        </mxCell>
        <mxCell id="avNWTsGXoQomydp-T-J9-59" value="Pays UPI" style="html=1;whiteSpace=wrap;" vertex="1" parent="1">
          <mxGeometry x="665" y="1120" width="110" height="50" as="geometry" />
        </mxCell>
        <mxCell id="avNWTsGXoQomydp-T-J9-60" value="Success Page" style="html=1;whiteSpace=wrap;" vertex="1" parent="1">
          <mxGeometry x="75" y="1220" width="110" height="50" as="geometry" />
        </mxCell>
        <mxCell id="avNWTsGXoQomydp-T-J9-61" value="Success Page" style="html=1;whiteSpace=wrap;" vertex="1" parent="1">
          <mxGeometry x="375" y="1220" width="110" height="50" as="geometry" />
        </mxCell>
        <mxCell id="avNWTsGXoQomydp-T-J9-62" value="Success Page" style="html=1;whiteSpace=wrap;" vertex="1" parent="1">
          <mxGeometry x="665" y="1220" width="110" height="50" as="geometry" />
        </mxCell>
        <mxCell id="avNWTsGXoQomydp-T-J9-65" value="Naviagtes Home" style="html=1;whiteSpace=wrap;" vertex="1" parent="1">
          <mxGeometry x="75" y="1320" width="110" height="50" as="geometry" />
        </mxCell>
        <mxCell id="avNWTsGXoQomydp-T-J9-66" value="Naviagtes Home" style="html=1;whiteSpace=wrap;" vertex="1" parent="1">
          <mxGeometry x="370" y="1320" width="110" height="50" as="geometry" />
        </mxCell>
        <mxCell id="avNWTsGXoQomydp-T-J9-67" value="Naviagtes Home" style="html=1;whiteSpace=wrap;" vertex="1" parent="1">
          <mxGeometry x="660" y="1320" width="110" height="50" as="geometry" />
        </mxCell>
        <mxCell id="avNWTsGXoQomydp-T-J9-68" value="" style="edgeStyle=segmentEdgeStyle;endArrow=classic;html=1;curved=0;rounded=0;endSize=8;startSize=8;exitX=0.5;exitY=1;exitDx=0;exitDy=0;entryX=1;entryY=0.5;entryDx=0;entryDy=0;" edge="1" parent="1" source="avNWTsGXoQomydp-T-J9-33" target="avNWTsGXoQomydp-T-J9-51">
          <mxGeometry width="50" height="50" relative="1" as="geometry">
            <mxPoint x="740" y="870" as="sourcePoint" />
            <mxPoint x="510" y="940" as="targetPoint" />
            <Array as="points">
              <mxPoint x="733" y="935" />
            </Array>
          </mxGeometry>
        </mxCell>
        <mxCell id="avNWTsGXoQomydp-T-J9-69" value="" style="line;strokeWidth=2;direction=south;html=1;" vertex="1" parent="1">
          <mxGeometry x="420" y="960" width="10" height="20" as="geometry" />
        </mxCell>
        <mxCell id="avNWTsGXoQomydp-T-J9-70" value="" style="edgeStyle=segmentEdgeStyle;endArrow=classic;html=1;curved=0;rounded=0;endSize=8;startSize=8;exitX=1;exitY=0.5;exitDx=0;exitDy=0;exitPerimeter=0;" edge="1" parent="1" source="avNWTsGXoQomydp-T-J9-69">
          <mxGeometry width="50" height="50" relative="1" as="geometry">
            <mxPoint x="425" y="1010" as="sourcePoint" />
            <mxPoint x="150" y="1020" as="targetPoint" />
            <Array as="points">
              <mxPoint x="425" y="1000" />
              <mxPoint x="150" y="1000" />
            </Array>
          </mxGeometry>
        </mxCell>
        <mxCell id="avNWTsGXoQomydp-T-J9-76" value="" style="endArrow=open;endFill=1;endSize=12;html=1;rounded=0;" edge="1" parent="1">
          <mxGeometry width="160" relative="1" as="geometry">
            <mxPoint x="424.5" y="1000" as="sourcePoint" />
            <mxPoint x="424.5" y="1020" as="targetPoint" />
          </mxGeometry>
        </mxCell>
        <mxCell id="avNWTsGXoQomydp-T-J9-77" value="" style="edgeStyle=segmentEdgeStyle;endArrow=classic;html=1;curved=0;rounded=0;endSize=8;startSize=8;entryX=0.5;entryY=0;entryDx=0;entryDy=0;" edge="1" parent="1" target="avNWTsGXoQomydp-T-J9-55">
          <mxGeometry width="50" height="50" relative="1" as="geometry">
            <mxPoint x="425" y="1000" as="sourcePoint" />
            <mxPoint x="720" y="1010" as="targetPoint" />
            <Array as="points">
              <mxPoint x="720" y="1000" />
            </Array>
          </mxGeometry>
        </mxCell>
        <mxCell id="avNWTsGXoQomydp-T-J9-78" value="" style="endArrow=open;endFill=1;endSize=12;html=1;rounded=0;" edge="1" parent="1">
          <mxGeometry width="160" relative="1" as="geometry">
            <mxPoint x="129.5" y="1070" as="sourcePoint" />
            <mxPoint x="129.5" y="1120" as="targetPoint" />
          </mxGeometry>
        </mxCell>
        <mxCell id="avNWTsGXoQomydp-T-J9-79" value="" style="endArrow=open;endFill=1;endSize=12;html=1;rounded=0;" edge="1" parent="1">
          <mxGeometry width="160" relative="1" as="geometry">
            <mxPoint x="129.5" y="1170" as="sourcePoint" />
            <mxPoint x="129.5" y="1220" as="targetPoint" />
          </mxGeometry>
        </mxCell>
        <mxCell id="avNWTsGXoQomydp-T-J9-80" value="" style="endArrow=open;endFill=1;endSize=12;html=1;rounded=0;" edge="1" parent="1">
          <mxGeometry width="160" relative="1" as="geometry">
            <mxPoint x="129.5" y="1270" as="sourcePoint" />
            <mxPoint x="129.5" y="1320" as="targetPoint" />
          </mxGeometry>
        </mxCell>
        <mxCell id="avNWTsGXoQomydp-T-J9-81" value="" style="endArrow=open;endFill=1;endSize=12;html=1;rounded=0;" edge="1" parent="1">
          <mxGeometry width="160" relative="1" as="geometry">
            <mxPoint x="425" y="1070" as="sourcePoint" />
            <mxPoint x="425" y="1120" as="targetPoint" />
          </mxGeometry>
        </mxCell>
        <mxCell id="avNWTsGXoQomydp-T-J9-82" value="" style="endArrow=open;endFill=1;endSize=12;html=1;rounded=0;" edge="1" parent="1">
          <mxGeometry width="160" relative="1" as="geometry">
            <mxPoint x="424.5" y="1170" as="sourcePoint" />
            <mxPoint x="424.5" y="1220" as="targetPoint" />
          </mxGeometry>
        </mxCell>
        <mxCell id="avNWTsGXoQomydp-T-J9-83" value="" style="endArrow=open;endFill=1;endSize=12;html=1;rounded=0;" edge="1" parent="1">
          <mxGeometry width="160" relative="1" as="geometry">
            <mxPoint x="719.5" y="1170" as="sourcePoint" />
            <mxPoint x="719.5" y="1220" as="targetPoint" />
          </mxGeometry>
        </mxCell>
        <mxCell id="avNWTsGXoQomydp-T-J9-84" value="" style="endArrow=open;endFill=1;endSize=12;html=1;rounded=0;" edge="1" parent="1">
          <mxGeometry width="160" relative="1" as="geometry">
            <mxPoint x="719.5" y="1070" as="sourcePoint" />
            <mxPoint x="719.5" y="1120" as="targetPoint" />
          </mxGeometry>
        </mxCell>
        <mxCell id="avNWTsGXoQomydp-T-J9-85" value="" style="endArrow=open;endFill=1;endSize=12;html=1;rounded=0;" edge="1" parent="1">
          <mxGeometry width="160" relative="1" as="geometry">
            <mxPoint x="425" y="1270" as="sourcePoint" />
            <mxPoint x="425" y="1320" as="targetPoint" />
          </mxGeometry>
        </mxCell>
        <mxCell id="avNWTsGXoQomydp-T-J9-86" value="" style="endArrow=open;endFill=1;endSize=12;html=1;rounded=0;" edge="1" parent="1">
          <mxGeometry width="160" relative="1" as="geometry">
            <mxPoint x="719.5" y="1270" as="sourcePoint" />
            <mxPoint x="719.5" y="1320" as="targetPoint" />
          </mxGeometry>
        </mxCell>
      </root>
    </mxGraphModel>
  </diagram>
</mxfile>
